<?xml version="1.0" encoding="utf-8"?>
<!-- Generator: Adobe Illustrator 23.0.4, SVG Export Plug-In . SVG Version: 6.00 Build 0)  -->
<svg version="1.1" id="Layer_1" xmlns="http://www.w3.org/2000/svg" xmlns:xlink="http://www.w3.org/1999/xlink" x="0px" y="0px"
	 viewBox="0 0 2000 2000" style="enable-background:new 0 0 2000 2000;" xml:space="preserve">
<style type="text/css">
	.st0{clip-path:url(#SVGID_2_);}
</style>
<g>
	<defs>
		<rect id="SVGID_1_" width="2000" height="2000"/>
	</defs>
	<clipPath id="SVGID_2_">
		<use xlink:href="#SVGID_1_"  style="overflow:visible;"/>
	</clipPath>
	<path class="st0" d="M294.2,546.8c0.7-16.2,2.2-32.2,1.9-48.5C577.7,442.9,806,298.3,996.4,87.4c193,208.4,423.3,355.3,709.3,411.2
		c12.6,532-104.4,1234.5-688.5,1413.9c-10.6,5.1-22.9,5.9-33.5,0.1C417,1740.5,286.9,1066.1,294.2,546.8 M996.1,170.3
		C823.3,350.9,604.2,485.2,359.6,542c-5.9,1.4-8.4,3.5-8.5,10.2c-2.6,247.4,22.7,499,104.9,733.5
		c86.3,255.8,269.3,492.7,537.2,570.2c427.5-104.4,601.3-585.3,640.9-981.3c12.6-106.2,14.7-213,14.8-319.9
		c0.2-8.4-2.4-11.5-10.3-13.4C1389.5,484.3,1176.5,348,996.1,170.3"/>
	<path class="st0" d="M709.7,1240h71c2.7,16.7,3.6,33.4,8.4,48.9c26.7,86.6,82.6,145,172.3,163.2c112.6,22.8,223.9-48.9,251.6-162.7
		c12.9-52.7,12.1-105.3-13.1-154.6c-10.2-19.9-25.8-36.9-39.3-55.1c-8.6-11.5-17.7-22.6-26.9-34.1c-12.6,6.3-25.4,5.2-36.4-1
		c-21.7-12.3-42.5-26-63.3-39.9c-3.5-2.3-4.6-8.3-6.8-12.7c5.3-0.7,11.5-3.4,15.9-1.7c9,3.4,17,9.3,25.4,14.1
		c3.2,1.9,6.4,3.8,10.2,4.8c-12.5-16.3-20.8-36.3-41.5-44.5c-3.6-1.4-7.6-2-11.4-2.3c-10.3-1-18.1-11.7-14.7-21.4
		c0.9-2.5,3.7-4.6,6.2-6c6.2-3.6,13-6.1,18.9-10.1c13-8.9,41-8.8,54.5-0.1c31.3,20.1,59.2,43.6,81.5,73.7c4.9,6.6,13.3,10.5,20,15.7
		c21.3,16.1,34.5,38.8,47.7,61c30.6,51.4,49.4,106.8,50.3,167.2c1,62.8-19.3,119-56.6,168.7c-49.3,65.8-115.6,104.8-197,115
		c-146.9,18.4-284.5-74.9-319.5-222.6c-4.2-17.7-5.2-36.2-7.6-54.3C709.4,1246.3,709.7,1243.3,709.7,1240"/>
	<path class="st0" d="M1291.1,741.5h-72.2c-3.3-18-4.7-35.9-10.1-52.5c-27.1-84.6-82.8-140.8-170.4-159.3
		c-66.5-14.1-127.4,3.4-179.8,46.9c-47.5,39.4-72.6,90.7-78.4,152.2c-3.8,40.1-0.7,79.2,17.7,115.2c10,19.6,25,36.8,38.2,54.7
		c9.2,12.6,19.2,24.5,29.3,37.3c16-7.6,31.5-3.2,45.2,4.9c19.1,11.2,37.3,24.2,55.4,37.1c3.2,2.3,3.8,8,5.7,12.1
		c-4.8,0.7-10.3,3.3-14.3,1.7c-9-3.5-17.2-8.9-25.6-13.7c-3.6-2-7-4.3-11.1-5.6c12.5,18,22.6,38.2,45,46.4c1.6,0.6,3.6,0.4,5.4,0.5
		c13.1,0.7,19.3,7.4,17.2,20c-0.5,2.9-4.6,5.7-7.6,7.5c-4.1,2.4-9.8,2.8-13.2,5.9c-10.4,9.4-23.1,9.4-35.7,11.1
		c-16.2,2.3-26.7-8.4-38.3-15.9c-9.9-6.4-18.7-14.7-27.5-22.7c-8.6-7.8-17.3-15.7-24.7-24.5c-10.2-12.2-20-24.1-33.7-33.2
		c-22.3-14.7-34.9-38.3-48.1-60.5C726.4,851.3,706.9,791.5,709,726c1.9-56.7,21.2-107.6,54.5-152.9
		c46.6-63.4,109.2-102.8,186.8-115.7c158.3-26.5,305.3,78.3,334.1,233C1287.5,706.9,1288.9,723.9,1291.1,741.5"/>
	<path class="st0" d="M1054.4,1295.7c11,8.4,21.5,17.8,33.3,24.9c11.8,7,13,17,12.8,28.9c-11.2,2.1-20.3,1.8-27.7-9.3
		c-8.2-12.3-18.6-23.1-29.6-33.5c4.7,16.5,17.9,27.9,25.9,42.7c-7.5,2.2-12-0.2-15.5-6.9c-5.4-10.2-11.7-20-17.4-29.7
		c-19.6,5.1-19.6,5.1-14.8,23.5c1.8,6.8,4.2,13.5,5,20.4c0.5,3.9-1.7,8.2-2.6,12.3c-1-0.2-1.9-0.4-2.9-0.7
		c-3.3-15.8-6.6-31.6-9.9-47.4c-1.3,0.2-2.5,0.4-3.8,0.5c0,2.8-0.3,5.6,0,8.4c1.2,11.2,2.4,22.5,3.9,33.7
		c2.3,16.7,2.2,17.3-11.1,28.8c-9.9-6-15.2-13.2-12-26.1c3-12,3.1-24.8,4.2-37.3c0.2-2.5-0.3-5.1-2.1-7.8
		c-7.3,15.2-7.7,32.1-11.8,48.1c-8.1-6-8.1-6-5.9-14.5c2.9-11.2,6-22.3,9.3-34.7c-6.4-2.6-12.7-5.1-19.5-7.8
		c-5.8,10.2-11.7,19.5-16.6,29.2c-3.2,6.3-7.5,9.2-15.5,8.2c9.3-14.1,18.3-27.8,27.3-41.5c-1-0.7-2-1.4-2.9-2.1
		c-1.9,2-3.9,3.8-5.6,6c-6.9,8.6-13.6,17.3-20.4,26c-10.4,13.1-10.4,13.1-29,12.6c-2.8-11.2-1.1-20.2,9.6-27.4
		c11.1-7.5,21-16.8,31.3-25.4c1-0.8,1.6-2.2,2.4-3.3c-0.5-0.7-1-1.4-1.5-2.1c-13.7,9-27.4,18-41.8,27.5c-0.9-7.4,1-12.1,7.3-15.3
		c10.2-5.4,20.2-11.3,31.1-17.5c-2.4-6.1-4.7-11.8-7.1-18.1c-11.2,3.2-21.8,5.8-32.2,9.2c-6.7,2.2-12.4,2.6-17-5.2
		c16.1-3.3,32.1-6.6,48.1-9.9c-0.1-1.1-0.2-2.2-0.3-3.3c-2.6-0.2-5.2-0.8-7.7-0.5c-11.5,1.4-23.2,2.1-34.4,4.9
		c-13.1,3.2-21.5-2.3-28.3-11.6c6.6-19.2,22-12.5,35.2-11.7c8.8,0.5,17.6,2,26.4,2.9c2.8,0.3,5.6,0,8.5,0c0.2-1.3,0.4-2.7,0.5-4
		c-16.2-3-32.4-6-49-9.1c3.7-6.5,8.2-8.3,15.3-5.9c8.3,2.8,17.3,3.7,25.6,6.7c7.7,2.8,11.2,0.5,13-6.8c0.7-2.9,2-5.7,3.4-9.3
		c-10.2-5.9-19.9-12.1-30.2-17.4c-6.1-3.1-8.8-7-6.6-14.4c13.8,8.9,27.4,17.7,41,26.5c0.8-1.2,1.6-2.3,2.4-3.5
		c-3.1-2.5-6.2-5.1-9.4-7.6c-7.8-6-15.1-12.8-23.5-17.5c-11.9-6.7-13.6-16.7-12.6-28.5c12.2-4,20.6-0.6,27.9,10.1
		c8.1,11.9,18.2,22.5,27.4,33.7c1.2-0.9,2.4-1.8,3.7-2.7c-9.4-13.5-18.8-27.1-28.7-41.4c7.9-1,12.7,0.4,16.2,7.4
		c5.2,10.3,11.5,20.1,17.1,29.8c1.3-0.1,1.9-0.1,2.4-0.3c17.4-6.7,17.3-6.7,12-24.5c-1.6-5.3-3.9-10.5-4.2-15.8
		c-0.3-5.1,1.5-10.3,2.4-15.4c1.1,0.1,2.1,0.2,3.2,0.3c3.4,15.8,6.9,31.5,10.3,47.3c1.2-0.2,2.5-0.5,3.7-0.7
		c-0.6-7-1.2-14.1-1.9-21.1c-0.6-6.1-0.5-12.4-2.3-18.2c-4.3-13.7,0.8-23.5,11.2-31.2c17.4,7.1,12.1,21.2,10.7,34.2
		c-1.3,12.1-2.3,24.2-3.5,36.3c0.9,0.4,1.8,0.7,2.6,1.1c1.2-1.7,3-3.3,3.4-5.2c2.9-14.3,5.4-28.7,8.2-43.8c5.9,3.4,8.1,7.8,6.2,14.3
		c-2.6,8.8-4.4,17.8-7.5,26.3c-2.7,7.1-1.1,10.8,6.1,12.8c3.8,1,7.4,2.8,11.8,4.5c6-10,12.2-19.7,17.6-29.9
		c3.3-6.1,7.3-8.5,14.8-6.2c-9.4,13.3-18.7,26.3-27.9,39.3c0.7,0.8,1.4,1.6,2.1,2.5c2.4-1.7,5.3-3,7.1-5.2
		c7.1-8.4,13.7-17.3,20.6-25.8c11-13.5,11.1-13.5,29.5-11.2c3.2,10.8,0.7,18.8-9.5,25.3c-11,7-21.1,15.7-31.5,23.8
		c-1.8,1.4-3,3.6-4.4,5.4c0.8,0.9,1.5,1.9,2.3,2.8c6.8-4.4,13.7-8.8,20.5-13.3c6.8-4.5,13.6-9.1,21.1-14.2
		c1.2,7.8-0.7,12.5-7.3,15.6c-7.4,3.5-14.3,8.4-21.8,11.6c-8.5,3.6-10.2,8.4-5.3,16c1.1,1.7,1.7,3.9,2.5,5.8
		c16.6,0.8,31.7-13.8,48.5-6c0.2,1.2,0.3,2.4,0.5,3.6l-47.5,9.4c0.1,1.2,0.2,2.4,0.4,3.6c4.2,0,8.4,0.4,12.6-0.1
		c13.1-1.4,26.1-4.5,39.1-4.1c6.7,0.2,13.3,6.5,19.8,9.9c-6.7,13.9-16.2,16.6-28.7,14.4c-12.6-2.2-25.5-3.1-38.2-4.4
		c-1.6-0.2-3.3,0.7-4.9,1.1l-0.1,2.9c16.1,3.3,32.2,6.6,48.6,10c-3.9,6.9-9.1,7.1-15.6,5.2c-11-3.3-22.2-6.1-33.9-9.2
		c-2.6,5.9-5,11.4-7.9,17.8c10.2,5.7,19.9,11.9,30.3,16.8c6.8,3.2,9,7.6,7.2,15.4c-14-9-27.8-17.9-41.6-26.8
		C1055.8,1293.5,1055.1,1294.6,1054.4,1295.7"/>
	<path class="st0" d="M1026.9,601.3c0.9,1.1,1.6,1.6,1.5,2c-1.7,12.1,4.8,24.5-1.9,36.4c-3.8,6.8-3.2,9.6,3.2,14.2
		c7-13.2,13.9-26.2,20.9-39.3c0.4,0.1,0.7,0.3,1.1,0.4c-2.4,7.6-5.4,15.1-7.1,22.8c-1.5,6.8-8.7,13.3-3.2,21.1
		c5.5-3.3,10.3-5.7,14.7-8.8c2.1-1.5,4.8-4.3,4.6-6.3c-0.6-8.1,3.5-12.3,10-15.7c2.4-1.3,3.9-4.4,5.9-6.7c0.3,0.4,1,1,0.9,1.1
		c-5.9,10.9-4.5,24.9-15,34.1c-3.9,3.4-11.1,7.6-2.5,14.8c10.4-8.6,20.6-17,30.9-25.5c0.5,0.4,0.9,0.9,1.4,1.3
		c-8.5,10-17,20-25.3,29.8c0.3,0.9,0.3,1.8,0.6,2c6,2.3,23.6-3.8,27.1-8.6c1.9-2.6,5.2-4.6,8.3-5.9c4.7-2,9.7-3.2,16.4-5.3
		c-12.2,14.1-23.9,27.1-42.1,32.7c0.2,1.3,0.4,2.6,0.6,3.9c2.9,0.6,6.1,2.3,8.6,1.6c12.3-3.3,24.4-7.1,37.1-9.5
		c-6.9,3.4-14,6.3-20.6,10.2c-6.3,3.6-14.7,4.5-18.7,12.3c6.6,1.6,12,3.5,17.5,4.1c3.2,0.3,6.5-1.6,9.8-2.5c4.1-1.1,8.3-2.6,12.5-3
		c4.2-0.4,8.6,0.4,13.1,0.8c0-0.6,0.2,0.3,0,0.4c-11.4,4.6-20.8,14.2-34.3,13.4c-0.6,0-1.3-0.2-1.8,0c-4.1,1.7-8.2,3.5-12.2,5.2
		c3.6,1.4,7,3.4,10.7,4c11.8,1.7,23.6,2.7,35.4,5.1c-12.8,0.8-25.6,1.3-38.3,2.5c-2.9,0.3-5.6,2.5-9.4,4.2c6.4,4.4,10.3,7.6,14.8,10
		c2.7,1.4,6.7,3,9.1,2c6.9-3,12.1-1.5,17.6,3.1c2.3,1.9,5.9,2.4,8.9,3.6c-4.6,2.5-32.4,3.3-36.8,1.1c-7.1-3.5-10.2-3.3-16.7,1.8
		c7,3.7,13.5,7.2,20.1,10.6c6.5,3.3,13,6.5,19,11.2c-13.6-4.2-27.1-8.3-43.3-13.3c1,3.8,1.3,6.3,2.4,8.5c1.4,3,3.1,5.9,5.3,8.3
		c2.3,2.5,5.4,6.3,7.9,6.1c7.4-0.5,11.1,2.9,14.5,8.7c1.7,2.9,5.2,4.7,9.9,8.8c-5.2-1.2-8.8-1.7-12.2-2.7c-4.5-1.3-8.9-2.8-13.3-4.5
		c-3.2-1.2-6.6-2.5-9.4-4.5c-2.7-1.9-4.4-5.4-7.2-6.9c-2.4-1.3-5.8-0.9-8.7-1.3c0.9,2.8,1,6.1,2.7,8.2c7.8,9.7,16.1,19.1,23.4,29.7
		c-11.2-9.4-22.4-18.8-35.7-30c-0.7,4-1.5,6.7-1.5,9.4c0,2.7,0.2,5.6,1.3,8c1.9,4,4.5,7.7,7.1,11.4c2.3,3.3,5.4,6,7.1,9.5
		c1.9,3.8,2.7,8.3,4,12.6c0.7-0.3-0.2,0.3-0.4,0.1c-8.7-8.3-20.5-13.4-25.5-25.5c-0.2-0.6-0.2-1.3-0.6-1.7c-3.1-3.1-6.3-6.1-9.5-9.1
		c0.2,3.8-0.3,7.8,0.8,11.3c3.3,11,7.1,21.8,9.7,33.2c-6.1-11.5-12.2-23-18.5-34.4c-1-1.9-3.1-3.1-4.8-4.7c-0.9,2-1.9,3.9-2.7,5.9
		c-1,2.8-2.3,5.7-2.5,8.7c-0.3,3.4-0.8,8.1,1,10c5,5.2,5.8,10.1,3.5,16.6c-1.1,3.2-0.2,7-0.2,10.7c-0.5-0.2-2.8-0.8-2.8-1.4
		c-0.7-12.2-13.5-20.1-11.7-33.1c0.2-1.2,0.5-2.6,0-3.6c-1.4-3.3-2.6-8.8-4.6-9.2c-6-1.1-4.8,4.7-5.2,8.3
		c-1.4,12.4-2.7,24.8-4.1,38.3c-1.9-16.1-3.7-31.1-5.7-46.2c0-0.4-1.6-0.5-1.9-0.6c-3.5,4.5-6.7,8.7-9.9,12.9c-0.7,0.9-2,2.3-1.8,3
		c4.9,12.1-3.1,21.7-7,32.3c-0.7-1.2-2.8-3.2-2.4-4.2c4.8-12.1-5.8-25.5,3.6-37.3c2.5-3.1,4.7-9.4-4-11.3
		c-6.8,12.5-13.6,24.9-20.4,37.4c-0.2-0.1-0.4-0.2-0.6-0.3c3.7-13.7,7.5-27.5,11.1-41.2c0.1-0.3-1.4-0.9-1.8-1.2
		c-5.1,3.1-10.2,5.6-14.7,9c-2.1,1.6-4.3,4.8-4.2,7.3c0.1,6.4-2.6,10.1-7.9,13.2c-3.3,2-5.7,5.7-8.5,8.6c-0.1-0.2-1.3-1.7-1-2.3
		c5.9-10.1,4.9-23.1,13.6-32c2.5-2.6,5.4-5.2,6.8-8.4c1-2.1-0.2-5.2-0.6-10.1c-12.9,11-23.5,20-34.1,29.1c-0.4-0.4-0.8-0.8-1.3-1.2
		c7.6-9.3,15.4-18.4,22.8-27.9c1.4-1.8,1.5-4.6,2.2-6.9c-2.2,0.4-4.3,0.8-6.5,1.2c-3,0.5-6.1,0.5-8.8,1.7c-3.6,1.5-6.9,3.7-10.1,5.8
		c-3.5,2.3-6.6,5.3-10.3,7.3c-4.1,2.2-8.6,3.5-12.8,5.2c0,0.2-0.4-0.7-0.2-0.9c7.6-9.1,14.4-19,24.9-25.1c3.4-2,7.5-3,10.5-5.3
		c1.6-1.2,1.5-4.5,2.2-6.8c-2.1-0.2-4.4-1.1-6.3-0.5c-12.5,3.6-24.9,7.4-37.8,10c13.1-6.7,26.2-13.3,41.5-21.2
		c-3.8-1.7-5.6-2.7-7.5-3.2c-3.5-0.9-7-2-10.6-2.1c-3.5-0.1-7.2,0.7-10.7,1.5c-4.7,1-9.3,2.7-14,3.3c-4,0.4-8.1-0.4-13.1-2.5
		c11.1-4.2,22.2-8.5,33.4-12.5c0.9-0.3,2.5,1,3.5,0.7c4.1-1.3,11.3-2.5,11.6-4.5c1-6.9-5.9-4.4-9.4-4.8c-12-1.6-24-2.3-36-4.3
		c13.4-1.2,26.7-2.4,40.1-3.9c1.9-0.2,3.6-2.2,5.4-3.3c-1.5-1.5-3-3.1-4.7-4.4c-2.3-1.9-4.6-4.1-7.3-5.1c-3.8-1.4-8-1.9-12.1-2.6
		c-4.2-0.7-8.5-0.9-12.5-2.1c-4.1-1.2-7.8-3.5-11.9-5.4c-0.2,0.3,0.3-1,0.7-1c11.8,0.1,23.9-5,35.4,0c9.8,4.3,13,4.7,16.8-1.9
		c-13.3-7.1-26.6-14.1-41.4-22c17.1,2.4,30.9,12.6,48.9,11.9c-4.7-7-7.1-11.5-10.4-15.2c-2.4-2.6-6.1-5.9-9.1-5.8
		c-6.3,0.3-9.4-2.8-12.7-7.2c-2.3-3.1-5.7-5.4-9.9-9.3c4,0.5,7.3,0.5,10.3,1.5c2.2,0.7,4.1,4.1,5.9,4c12.1-0.7,19.8,6.9,28,13.9
		c1.3,1.1,4.6-0.1,7-0.3c-0.5-2.1-0.4-4.8-1.7-6.2c-7.7-9-15.7-17.7-22.3-28c9.1,7.3,18.1,14.7,27.3,21.8c1.7,1.3,4,1.9,6.1,2.8
		c0.2-2.4,0.6-4.7,0.6-7.1c0.1-8.9-0.9-17.1-11.6-20c-1.5-0.4-2.4-3.9-3.2-6.2c-1.7-4.6-3.2-9.3-4.7-14c-0.3,0.1,0.5-0.4,0.7-0.2
		c8.4,8.3,19.9,13.5,25.6,24.6c0.3,0.5,0,1.4,0.4,1.8c3.1,3,6.3,6,9.5,9c-0.1-3.8,0.5-7.8-0.6-11.3c-2.7-9.3-6.2-18.3-7.6-28.4
		c5.2,9.5,10.2,19.1,15.7,28.5c1.3,2.3,4,3.8,6.1,5.6c0.8-2.4,1.6-4.8,2.6-7.1c3.1-7.9,5.4-15.3-3-22c-1.5-1.2-0.6-5.8-0.5-8.8
		c0.2-4,0.8-8,1.2-12.5c-0.6,0.2,0.4-0.1,0.4-0.1c3.9,11.6,15.2,20.3,13.4,34.3c-0.3,2.6,0.3,5.5,1.2,8c0.6,1.6,2.5,2.8,3.8,4.2
		c1.2-1.8,3.4-3.4,3.5-5.3c1.2-12,2-24,4.9-36c0.8,11,1.5,22,2.7,33c0.3,2.6,2.1,5.1,3.2,7.7c2-1.6,4.1-3.2,6-5c2-1.9,4-3.9,5.5-6.1
		c1.5-2.2,3.9-5.5,3.2-7c-4-8.6-1.2-15.2,4.4-21.6C1026.2,607.1,1026.1,604.2,1026.9,601.3 M1022.6,677.3
		c-6.4,0.5-12.5,0.9-19.6,1.5c0.8-6.5,1.4-12,2-17.5h-12.2c0.6,6,1.2,11.5,1.9,18.1c-7-0.6-12.9-1.1-19.4-1.7v12.6
		c6.6-0.7,12.8-1.3,20-2v47.5h-13.9c3.2-9.4-7-20.9,8.8-27.8h-27.3c16.2,8.1,9.4,21,9.4,31c0,10.5,5.9,23.3-7.9,32.7H990
		c-10.2-6.3-12.1-14.6-7.9-29.3h35.3c-2.7,9.9,4.3,20.8-6.3,28.4h19c-1.4-4.2-3.7-8.2-3.9-12.4c-0.5-11.9-0.5-23.9,0.2-35.8
		c0.3-5.1,2.8-10.1,4.2-14.8h-22.7c9.9,5.3,11.4,12.3,7.9,28h-13.3V688c7.4,0.4,13.6,0.7,20.2,1.1V677.3z M1037.2,754.6
		c-0.6,0.1-1.3,0.2-1.9,0.3c1.7,5,3.4,10,4.8,14.3c7.5,0.7,14.3,1.8,21.1,2c10,0.2,17.7-6.2,19.7-15.8c2-9.6-3.5-15-11.1-18.7
		c-5.7-2.8-11.8-4.9-17.8-7.2c-6.2-2.4-9.9-6.6-8.3-13.3c1.5-6.4,6.8-8.8,12.8-7.4c4.8,1.1,9.4,3.5,13.6,6.1
		c2.4,1.5,3.7,4.7,5.5,7.1c0.8-0.7,1.6-1.5,2.4-2.2c-1.9-4.7-3.8-9.3-5.5-13.3c-6.5-0.6-12.1-1.4-17.8-1.7
		c-8.9-0.4-14.7,4.3-17,12.5c-2.3,8.1,0,15.4,7.9,19.5c5.4,2.7,11.2,4.4,16.9,6.6c10,3.8,13.4,9.4,10.3,17
		c-3.4,8.3-11.6,11-20.6,5.9C1046.9,763.1,1042.2,758.5,1037.2,754.6 M955.4,708.8H933c6.6,2.8,7.6,7.4,7.4,13.6
		c-0.5,12.5,0,25-0.6,37.5c-0.2,3.9-2.9,7.6-4.7,12h22.2C946,764.5,945.4,716.2,955.4,708.8 M992.7,776.9
		c2.1,11.2,4.1,21.4,6.4,33.5c1.7-9.7,1.5-17.9,4.7-24.3c3.7-7.5,1-10.8-4.5-14.7C996.5,773.7,994,775.8,992.7,776.9 M1028.1,787.9
		c-6.4,9.9-11.9,18.3-17.8,27.3c8.8-6.2,17.2-12.2,26.5-18.7v-8.6H1028.1z M985.6,812.9c-5.1-8.4-10.1-16.5-15.5-25.5
		c-2.3,0.1-5.8,0.3-10.8,0.5c1.3,4.4,1.3,9,3.5,10.6C969.8,803.8,977.6,808,985.6,812.9"/>
	<path class="st0" d="M1617.1,574.9c-19.9,37.6-40,75.5-61,115.1c-21.6-53.9-42.2-105.5-62-155.1
		C1533.7,547.7,1574.6,561,1617.1,574.9"/>
	<path class="st0" d="M386.4,573c42.6-13.8,83.4-27.1,122.9-40c-19.9,49.7-40.4,101.2-61.9,155C426.6,648.7,406.4,610.6,386.4,573"
		/>
	<path class="st0" d="M1621.8,607c3.3,86.8-7.9,172-20.5,257.3c-1.8-11.7-2.6-23.6-5.6-35c-9.4-35.6-19.2-71.1-29.6-106.4
		c-2.2-7.4-1.8-12.6,2.1-19.4c17.1-29.5,33.4-59.6,50-89.4C1619.4,611.8,1620.6,609.4,1621.8,607"/>
	<path class="st0" d="M402.4,861.8c-12.9-85-24-170-22.5-258.1c2.1,2.9,3.3,4.2,4.1,5.7c17.9,32,35.8,63.9,53.3,96.1
		c1.8,3.4,1.9,8.7,0.9,12.6c-10.4,39.1-21.4,78.1-31.7,117.2C404.2,843.9,403.7,852.9,402.4,861.8"/>
	<path class="st0" d="M1008.1,1825.7c0,3.7-3,6.8-6.8,6.8c-3.7,0-6.8-3-6.8-6.8c0-3.7,3-6.8,6.8-6.8
		C1005,1819,1008.1,1822,1008.1,1825.7"/>
</g>
<g>
	<path d="M405.3,899.3l4,1.3c-1.5,2.3-2.3,5.8-2,9c0.4,4.1,2.1,5.7,4.1,5.5c5.7-0.6,0.3-15.9,10.1-17c4.3-0.4,8.3,2.6,9,9.8
		c0.3,3.2-0.2,6.6-1.4,9l-4-1.2c1.1-2.5,1.6-5.2,1.3-7.5c-0.4-4.1-2.2-5.6-4.2-5.4c-5.6,0.6-0.3,15.9-10,16.9
		c-4.2,0.4-8.2-2.6-9-9.9C402.8,906,403.6,901.7,405.3,899.3z"/>
</g>
<g>
	<path d="M413.3,941.7l-1.6-13.2l-6.4-1.9l-0.6-5.1l27.8,8.7l0.6,4.8l-25,15.1l-0.6-5.1L413.3,941.7z M417,939.6l11-6.4l-12.1-3.6
		L417,939.6z"/>
</g>
<g>
	<path d="M438.1,973l-26.4,3.6l-0.5-4l15.9-17l-17.8,2.4l-0.7-4.9l26.4-3.6l0.5,4l-15.9,17l17.8-2.4L438.1,973z"/>
</g>
<g>
	<path d="M428.9,999.2l0.7,4.6l-10.5,1.6c-2.6-2.4-4.3-6.1-4.9-9.8c-1.2-8.1,3.5-15,11.4-16.2c7.8-1.2,14.4,3.9,15.7,12.2
		c0.7,4.4-0.2,8.3-2.7,11.2l-3.5-2.6c1.7-2.4,2.3-4.9,1.9-7.7c-0.9-5.6-5.3-9-10.7-8.1c-5.3,0.8-8.6,5.4-7.8,10.9
		c0.3,1.9,0.9,3.7,2.2,5.2L428.9,999.2z"/>
</g>
<g>
	<path d="M433.6,1027.5l0.8,4.6l-10.4,1.8c-2.7-2.4-4.5-6-5.1-9.7c-1.4-8.1,3.2-15.1,11.1-16.4c7.8-1.3,14.5,3.7,15.9,11.9
		c0.7,4.4-0.1,8.3-2.5,11.3l-3.5-2.6c1.7-2.4,2.2-4.9,1.8-7.7c-1-5.6-5.4-8.9-10.8-7.9c-5.3,0.9-8.5,5.5-7.6,11
		c0.3,1.9,1,3.6,2.3,5.2L433.6,1027.5z"/>
</g>
<g>
	<path d="M433.4,1038.1l14.7-2.8l0.9,4.9l-14.6,2.7c-5.4,1-7.2,3.9-6.4,8.1c0.8,4.2,3.6,6.2,8.9,5.2l14.6-2.7l0.9,4.8l-14.7,2.8
		c-7.6,1.4-12.6-2.1-13.9-9.2C422.5,1044.6,425.8,1039.5,433.4,1038.1z"/>
</g>
<g>
	<path d="M458.5,1087.3l-26,5.4l-0.8-4l14.7-18l-17.6,3.7l-1-4.8l26-5.4l0.8,4l-14.7,18l17.6-3.7L458.5,1087.3z"/>
</g>
<g>
	<path d="M459.9,1093.6l1.1,4.8l-26,5.7l-1.1-4.8L459.9,1093.6z"/>
</g>
<g>
	<path d="M446.4,1126.2l-3-12.9l-6.6-1.1l-1.2-5l28.6,5.6l1.1,4.7l-23.1,17.8l-1.2-5L446.4,1126.2z M449.8,1123.7l10.2-7.5
		l-12.5-2.2L449.8,1123.7z"/>
</g>
<g>
	<path d="M474.5,1154.5l-25.8,6.6l-1-3.9l13.8-18.7l-17.5,4.4l-1.2-4.8l25.8-6.6l1,3.9l-13.8,18.7l17.5-4.4L474.5,1154.5z"/>
</g>
<g>
	<path d="M485.2,1192.9l-25.6,7.3l-1.1-3.9l13.3-19l-17.3,4.9l-1.3-4.7l25.6-7.3l1.1,3.9l-13.3,19l17.3-4.9L485.2,1192.9z"/>
</g>
<g>
	<path d="M479.8,1220l1.4,4.5l-10.1,3.1c-3-2-5.2-5.4-6.3-9c-2.4-7.9,1.3-15.4,8.9-17.7c7.6-2.3,14.9,1.8,17.3,9.8
		c1.3,4.3,1,8.2-1,11.5l-3.8-2.1c1.4-2.6,1.6-5.2,0.8-7.9c-1.7-5.4-6.5-8.1-11.8-6.5c-5.2,1.6-7.8,6.5-6.1,11.9
		c0.6,1.8,1.5,3.5,2.9,4.8L479.8,1220z"/>
</g>
<g>
	<path d="M481,1267.1l16.7-5.7l-16.6-3.6l-0.7-2.1l10.8-12.9l-16.5,5.6l-1.5-4.5l25.2-8.5l1.3,3.8l-13.3,15.7l20,4.2l1.3,3.9
		l-25.2,8.6L481,1267.1z"/>
</g>
<g>
	<path d="M503.8,1290.3l1.6,4.4l-10,3.6c-3.1-1.8-5.5-5.1-6.8-8.6c-2.8-7.7,0.5-15.4,7.9-18.2c7.5-2.7,14.9,1,17.8,8.8
		c1.5,4.2,1.4,8.2-0.4,11.5l-3.9-1.9c1.2-2.7,1.3-5.3,0.3-7.9c-1.9-5.3-6.9-7.7-12.1-5.8c-5.1,1.9-7.4,7-5.5,12.2
		c0.7,1.8,1.6,3.4,3.2,4.7L503.8,1290.3z"/>
</g>
<g>
	<path d="M506.8,1318.8l-4.8-12.4l-6.7-0.2l-1.9-4.7l29.1,1.5l1.8,4.5l-20.4,20.9l-1.9-4.8L506.8,1318.8z M509.8,1315.9l9-8.9
		l-12.6-0.4L509.8,1315.9z"/>
</g>
<g>
	<path d="M518.6,1363l16.2-7l-16.9-2.3l-0.9-2l9.7-13.7l-16,6.9l-1.9-4.3l24.4-10.5l1.6,3.7l-12,16.7l20.3,2.6l1.6,3.7l-24.4,10.5
		L518.6,1363z"/>
</g>
<g>
	<path d="M536,1386.5l-5.6-12.1l-6.7,0.2l-2.1-4.6l29.2-0.3l2,4.4l-19.1,22l-2.2-4.7L536,1386.5z M538.8,1383.4l8.5-9.4l-12.6,0.4
		L538.8,1383.4z"/>
</g>
<g>
	<path d="M555.1,1408.8l2.1,4.2l-9.5,4.7c-3.2-1.5-6-4.5-7.6-7.9c-3.6-7.4-1.2-15.4,6-18.9s15-0.6,18.6,6.9c2,4,2.3,8,0.8,11.5
		l-4.1-1.5c1-2.8,0.8-5.4-0.5-7.9c-2.5-5.1-7.7-7-12.6-4.5c-4.8,2.4-6.6,7.7-4.1,12.8c0.8,1.7,2,3.2,3.6,4.3L555.1,1408.8z"/>
</g>
<g>
	<path d="M558.2,1417.4l4.8,9.3l-3.5,1.8l-4.8-9.3L558.2,1417.4z"/>
</g>
<g>
	<path d="M567.5,1448.7l-6.3-11.7l-6.7,0.6l-2.4-4.5l29.1-2.1l2.3,4.3l-17.7,23.2l-2.5-4.5L567.5,1448.7z M570.1,1445.4l7.9-9.9
		l-12.6,1.1L570.1,1445.4z"/>
</g>
<g>
	<path d="M581.6,1473.6l-6.6-11.5l-6.6,0.8l-2.5-4.4l29-2.9l2.4,4.2l-17.1,23.7l-2.6-4.5L581.6,1473.6z M584.1,1470.2l7.6-10.1
		l-12.6,1.5L584.1,1470.2z"/>
</g>
<g>
	<path d="M590.7,1500.8l3.8-8.7c-0.2-0.3-0.4-0.6-0.6-0.9l-3.1-5.1l-6.6,4l-2.6-4.2l22.7-13.9l5.7,9.3c3.6,6,2.9,11.5-2.2,14.6
		c-3.4,2.1-7,1.9-10.1-0.5l-4.3,9.8L590.7,1500.8z M606.4,1483.4l-3-4.9l-9,5.5l3,4.9c2.3,3.7,5.1,4.6,8,2.8
		C608.2,1490,608.6,1487.1,606.4,1483.4z"/>
</g>
<g>
	<path d="M610.6,1520.3l-7.2-11.1l-6.6,1.2l-2.8-4.3l28.8-4.5l2.7,4.1l-15.8,24.6l-2.8-4.3L610.6,1520.3z M612.9,1516.8l7-10.5
		l-12.5,2.2L612.9,1516.8z"/>
</g>
<g>
	<path d="M633.3,1517.6l2.8,4.1l-18.5,12.7l7.9,11.5l-3.4,2.4l-10.7-15.5L633.3,1517.6z"/>
</g>
<g>
	<path d="M665.4,1562.2l-21.3,15.9l-2.4-3.3l5.6-22.5l-14.4,10.8l-2.9-3.9l21.3-15.9l2.4,3.3l-5.6,22.5l14.4-10.8L665.4,1562.2z"/>
</g>
<g>
	<path d="M670.2,1589.1l2.9,3.6l-8.3,6.6c-3.5-0.8-6.8-3.1-9.2-6c-5.2-6.4-4.5-14.8,1.7-19.7c6.2-5,14.5-3.8,19.7,2.7
		c2.8,3.5,4,7.3,3.3,11l-4.3-0.5c0.3-2.9-0.4-5.4-2.2-7.6c-3.5-4.4-9-5.1-13.3-1.7c-4.2,3.4-4.8,9-1.3,13.3c1.2,1.5,2.7,2.7,4.5,3.4
		L670.2,1589.1z"/>
</g>
<g>
	<path d="M708.6,1613.6l-19.9,17.6l-2.7-3l3.8-22.9l-13.5,11.9l-3.2-3.7l19.9-17.6l2.7,3l-3.8,22.9l13.5-11.9L708.6,1613.6z"/>
</g>
<g>
	<path d="M709.5,1644.4l-9.2-9.6l-6.3,2.4l-3.5-3.7l27.5-9.7l3.4,3.5l-11,27l-3.6-3.7L709.5,1644.4z M711.2,1640.5l5-11.7l-11.8,4.4
		L711.2,1640.5z"/>
</g>
<g>
	<path d="M726.9,1654.7l-6,0.2l-4.7,4.9l-3.5-3.4l18.6-19l3.5,3.4l-9.5,9.8l18.9-0.6l4,3.9l-16.3,0.7l-1.8,18.8l-4.1-4L726.9,1654.7
		z"/>
</g>
<g>
	<path d="M748.2,1681.5l-9.8-8.9l-6.1,2.8l-3.8-3.4l26.7-11.7l3.6,3.3l-9,27.8l-3.8-3.5L748.2,1681.5z M749.6,1677.5l4.1-12
		l-11.5,5.3L749.6,1677.5z"/>
</g>
<g>
	<path d="M769.7,1678.6l-6.7-5.7l2.7-3.2l17.2,14.6l-2.7,3.2l-6.7-5.7l-14.5,17.1l-3.8-3.2L769.7,1678.6z"/>
</g>
<g>
	<path d="M784.5,1711.7l-10.4-8.2l-5.9,3.2l-4-3.2l25.9-13.4l3.8,3l-7.1,28.3l-4.1-3.2L784.5,1711.7z M785.7,1707.7l3.3-12.2
		l-11.1,6L785.7,1707.7z"/>
</g>
<g>
	<path d="M805.8,1707.4l-7.1-5.2l2.5-3.4l18.2,13.4l-2.5,3.4l-7.1-5.2l-13.3,18.1l-4-2.9L805.8,1707.4z"/>
</g>
<g>
	<path d="M822.9,1739.3l-11-7.5l-5.6,3.6l-4.2-2.9l24.9-15.3l4,2.7l-5,28.7l-4.3-2.9L822.9,1739.3z M823.7,1735.2l2.4-12.4
		l-10.7,6.8L823.7,1735.2z"/>
</g>
<g>
	<path d="M862.9,1740.3L849,1763l-3.5-2.1l-3.1-23l-9.4,15.3l-4.2-2.6l13.9-22.7l3.5,2.1l3.1,23l9.4-15.3L862.9,1740.3z"/>
</g>
<g>
	<path d="M868.4,1743.5l10.2,5.6c7.6,4.1,10.2,11.6,6.4,18.6s-11.5,8.8-19.1,4.7l-10.2-5.6L868.4,1743.5z M867.7,1768.7
		c5.2,2.8,10.3,1.5,12.9-3.3c2.6-4.8,1-9.8-4.2-12.7l-5.7-3.1l-8.7,16L867.7,1768.7z"/>
</g>
<g>
	<path d="M901.6,1783.8l-12-5.8l-5,4.4l-4.6-2.2l22.4-18.7l4.4,2.1l-0.8,29.2l-4.7-2.3L901.6,1783.8z M901.9,1779.6l0.6-12.7
		l-9.5,8.3L901.9,1779.6z"/>
</g>
<g>
	<path d="M941.8,1779.1l-10.4,24.5l-3.7-1.6l-6.5-22.3l-7,16.6l-4.5-1.9l10.4-24.5l3.7,1.6l6.5,22.3l7-16.6L941.8,1779.1z"/>
</g>
<g>
	<path d="M960.3,1799.8l4.4,1.6l-3.6,10c-3.4,1.2-7.4,0.9-10.9-0.4c-7.7-2.8-11.5-10.3-8.8-17.8s10.4-10.8,18.2-7.9
		c4.2,1.5,7.2,4.2,8.5,7.7l-4,1.8c-1.2-2.7-3.2-4.4-5.8-5.4c-5.3-1.9-10.4,0.3-12.3,5.5c-1.8,5.1,0.5,10.1,5.8,12.1
		c1.8,0.7,3.7,0.9,5.6,0.6L960.3,1799.8z"/>
</g>
<g>
	<path d="M1071.7,1803.3l-6.7-16.8l-2.8,17.2l-2.1,0.8l-13.8-10.4l6.6,16.6l-4.5,1.8l-10.1-25.4l3.9-1.5l16.8,12.8l3.2-20.7l3.9-1.5
		l10.1,25.4L1071.7,1803.3z"/>
</g>
<g>
	<path d="M1099.4,1784l-12.4,5.7l0.2,6.9l-4.7,2.2l-0.3-29.9l4.5-2.1l22.6,19.6l-4.8,2.2L1099.4,1784z M1096.2,1781.1l-9.7-8.7
		l0.4,13L1096.2,1781.1z"/>
</g>
<g>
	<path d="M1108.7,1760.8l-8,4.1l-2-3.8l20.6-10.6l2,3.8l-8,4.1l10.5,20.5l-4.5,2.3L1108.7,1760.8z"/>
</g>
<g>
	<path d="M1149.3,1757.6l-11.9,6.8l0.8,6.8l-4.5,2.6l-2.9-29.8l4.3-2.5l24.2,17.6l-4.6,2.6L1149.3,1757.6z M1145.9,1755l-10.4-7.8
		l1.5,12.9L1145.9,1755z"/>
</g>
<g>
	<path d="M1177.4,1740.3l-11.5,7.3l1.1,6.8l-4.4,2.8l-4.3-29.6l4.2-2.7l25.1,16.4l-4.5,2.9L1177.4,1740.3z M1173.9,1737.8l-10.8-7.3
		l2.1,12.8L1173.9,1737.8z"/>
</g>
<g>
	<path d="M1189.8,1736.2l-0.8-4.2c2.8,0.2,6.4-0.8,9.1-2.7c3.5-2.4,4.1-4.7,2.9-6.4c-3.4-4.8-14.4,7.7-20.3-0.6
		c-2.5-3.6-1.8-8.7,4.3-13c2.7-1.9,6-3.2,8.8-3.2l1,4.1c-2.8,0.2-5.4,1.2-7.4,2.6c-3.4,2.4-3.9,4.8-2.7,6.4
		c3.3,4.8,14.4-7.7,20.2,0.5c2.5,3.6,1.8,8.7-4.4,13C1197,1735.1,1192.7,1736.5,1189.8,1736.2z"/>
</g>
<g>
	<path d="M1229.3,1675.8l17.1,21.2l-3.2,2.6l-23.3-4.9l11.6,14.4l-3.9,3.2l-17.1-21.2l3.2-2.6l23.3,4.9l-11.6-14.4L1229.3,1675.8z"
		/>
</g>
<g>
	<path d="M1263.8,1673.5l-10.2,9.1l2.2,6.5l-3.9,3.5l-8.9-28.6l3.7-3.3l27.3,12.2l-4,3.5L1263.8,1673.5z M1259.9,1671.7l-11.8-5.5
		l4.1,12.3L1259.9,1671.7z"/>
</g>
<g>
	<path d="M1293.1,1629.5c4.3,4.2,3.8,10-1.3,15.1l-4.3,4.4l5.6,5.6l-3.6,3.6l-19.4-19.3l7.9-8
		C1283,1625.8,1288.8,1625.2,1293.1,1629.5z M1289.5,1633.1c-2.4-2.4-5.5-2.2-8.6,1l-4.2,4.2l7.7,7.6l4.2-4.2
		C1291.7,1638.6,1291.9,1635.6,1289.5,1633.1z"/>
</g>
<g>
	<path d="M1317.9,1619.4l-9.2,10l2.8,6.3l-3.5,3.8l-11.8-27.5l3.4-3.7l28.4,9.4l-3.6,3.9L1317.9,1619.4z M1313.8,1617.9l-12.3-4.3
		l5.3,11.8L1313.8,1617.9z"/>
</g>
<g>
	<path d="M1339.6,1594.3l-8.8,10.4l3.1,6.1l-3.4,4l-12.9-27l3.2-3.8l28.8,8.2l-3.4,4L1339.6,1594.3z M1335.5,1593l-12.4-3.8
		l5.8,11.6L1335.5,1593z"/>
</g>
<g>
	<path d="M1365,1572.7l-9.7-0.5c-0.2,0.3-0.4,0.6-0.6,0.9l-3.8,4.9l6.3,4.9l-3.1,4l-21.5-16.8l6.9-8.8c4.4-5.7,10.1-6.9,14.8-3.2
		c3.3,2.5,4.4,6.1,3.2,9.9l10.9,0.6L1365,1572.7z M1342.6,1563.9l-3.7,4.7l8.6,6.7l3.7-4.7c2.7-3.5,2.6-6.6-0.1-8.7
		S1345.4,1560.4,1342.6,1563.9z"/>
</g>
<g>
	<path d="M1378.9,1543.4l-8,11l3.5,5.9l-3.1,4.2l-14.9-26l2.9-4l29.3,6.1l-3.1,4.3L1378.9,1543.4z M1374.7,1542.4l-12.7-2.8
		l6.7,11.1L1374.7,1542.4z"/>
</g>
<g>
	<path d="M1370.1,1519.4l2.8-4.2l19,12.9l8-11.8l3.6,2.4l-10.9,16L1370.1,1519.4z"/>
</g>
<g>
	<path d="M1411.9,1493.9l-7.3,11.5l3.9,5.7l-2.8,4.4l-16.5-25l2.7-4.2l29.7,4.2l-2.8,4.5L1411.9,1493.9z M1407.7,1493.2l-12.8-2
		l7.3,10.7L1407.7,1493.2z"/>
</g>
<g>
	<path d="M1413.9,1449.7l23.5,13.8l-2.1,3.6l-23.6,3.6l15.9,9.4l-2.5,4.3l-23.5-13.8l2.1-3.6l23.6-3.6l-15.9-9.4L1413.9,1449.7z"/>
</g>
<g>
	<path d="M1436.9,1407.2l24.2,12.7l-1.9,3.7l-23.4,4.7l16.4,8.6l-2.3,4.5l-24.2-12.7l1.9-3.7l23.4-4.7l-16.4-8.6L1436.9,1407.2z"/>
</g>
<g>
	<path d="M1461.6,1387.2l2.1-4.3l9.8,4.8c0.8,3.6,0.1,7.7-1.6,11.1c-3.7,7.6-11.7,10.6-19.1,7.1c-7.3-3.6-9.9-11.8-6.2-19.4
		c2-4.1,5-6.9,8.8-7.9l1.4,4.2c-2.9,1-4.8,2.8-6.1,5.4c-2.5,5.2-0.8,10.6,4.3,13.1c5,2.4,10.4,0.5,12.9-4.7c0.9-1.8,1.3-3.6,1.2-5.7
		L1461.6,1387.2z"/>
</g>
<g>
	<path d="M1487.9,1347.8l-5.5,12.5l4.7,5l-2.1,4.8l-20.1-22.2l2-4.6l30-0.3l-2.1,4.9L1487.9,1347.8z M1483.6,1347.7l-13-0.1l8.9,9.5
		L1483.6,1347.7z"/>
</g>
<g>
	<path d="M1479.9,1323.8l-3.4,8.4l-4-1.6l8.8-21.4l4,1.6l-3.4,8.4l21.3,8.7l-1.9,4.7L1479.9,1323.8z"/>
</g>
<g>
	<path d="M1512.6,1291.9l4,1.5l-7.4,19.1l-25.5-9.8l7.2-18.6l4,1.5l-5.3,13.9l6.6,2.5l4.7-12.3l3.9,1.5l-4.7,12.3l7,2.7
		L1512.6,1291.9z"/>
</g>
<g>
	<path d="M1502.3,1252.7l25.7,9.2l-1.4,3.9l-22.5,8l17.4,6.2l-1.7,4.7l-25.7-9.2l1.4-3.9l22.5-8l-17.4-6.2L1502.3,1252.7z"/>
</g>
<g>
	<path d="M1533.9,1230.7l4,1.3l-6.4,19.4l-25.9-8.5l6.2-18.9l4,1.3l-4.6,14.1l6.7,2.2l4.1-12.5l4,1.3l-4.1,12.5l7.1,2.4
		L1533.9,1230.7z"/>
</g>
<g>
	<path d="M1527.1,1221.2c-7.7-2.3-11.6-10-9.2-18.1c2.5-8.1,9.9-12.4,17.7-10s11.6,10,9.2,18.1
		C1542.3,1219.4,1534.8,1223.6,1527.1,1221.2z M1534.1,1198c-5.3-1.6-10.4,1.1-12,6.4c-1.6,5.3,1.1,10.3,6.4,12
		c5.3,1.6,10.4-1.1,12-6.4C1542.1,1204.7,1539.5,1199.6,1534.1,1198z"/>
</g>
<g>
	<path d="M1528.6,1167.5l3-11.5c2.3-8.6,9.1-13,17-10.9s11.7,9.3,9.4,17.9l-3,11.5L1528.6,1167.5z M1553.9,1162
		c1.6-5.9-1-10.6-6.5-12.1c-5.5-1.4-10.1,1.4-11.6,7.3l-1.7,6.4l18.1,4.8L1553.9,1162z"/>
</g>
<g>
	<path d="M1564.7,1118.9l4.1,1l-4.8,19.9l-26.5-6.4l4.6-19.4l4.1,1l-3.5,14.5l6.9,1.7l3.1-12.8l4.1,1l-3.1,12.8l7.3,1.8
		L1564.7,1118.9z"/>
</g>
<g>
	<path d="M1579,1072.1l-17.7-3.6l12.9,11.8l-0.5,2.2l-16.2,5.9l17.5,3.5l-1,4.7l-26.8-5.4l0.8-4.1l19.9-7l-15.6-14l0.8-4.1l26.8,5.4
		L1579,1072.1z"/>
</g>
<g>
	<path d="M1578.8,1038.1l-2.4,13.4l5.8,3.7l-0.9,5.1l-24.8-16.8l0.9-4.9l29-7.4l-0.9,5.2L1578.8,1038.1z M1574.5,1039l-12.6,3
		l10.9,7.1L1574.5,1039z"/>
</g>
<g>
	<path d="M1564,996.2l27,4l-0.6,4.1l-20.5,12.2l18.3,2.7l-0.7,5l-27-4l0.6-4.1l20.5-12.2l-18.3-2.7L1564,996.2z"/>
</g>
<g>
	<path d="M1565.3,985.9l0.6-5l27.1,3.4l-0.6,5L1565.3,985.9z"/>
</g>
<g>
	<path d="M1567.3,970.4l0.5-5l22.9,2.5l1.5-14.2l4.3,0.5l-2.1,19.2L1567.3,970.4z"/>
</g>
<g>
	<path d="M1592.3,928.2l-1.1,13.6l6.1,3.2l-0.4,5.2l-26.3-14.4l0.4-5l28.2-10.2l-0.4,5.3L1592.3,928.2z M1588.2,929.6l-12.3,4.2
		l11.5,6L1588.2,929.6z"/>
</g>
</svg>
