<?xml version="1.0" encoding="utf-8"?>
<!-- Generator: Adobe Illustrator 23.0.4, SVG Export Plug-In . SVG Version: 6.00 Build 0)  -->
<svg version="1.1" id="Layer_1" xmlns="http://www.w3.org/2000/svg" xmlns:xlink="http://www.w3.org/1999/xlink" x="0px" y="0px"
	 viewBox="0 0 1813.1 1813.1" style="enable-background:new 0 0 1813.1 1813.1;" xml:space="preserve">
<style type="text/css">
	.st0{fill:#FFFFFF;}
</style>
<title>dac_logo_1</title>
<g>
	<polygon class="st0" points="950,1460.2 978,1450.1 952,1422.3 	"/>
	<path class="st0" d="M782,1519.5c-0.6-4.2-1.9-8.4-3.9-12.1c-1.5-3.3-3.6-6.2-6.1-8.8c-4.4-4.5-10.1-7.3-16.3-8.2
		c-3-0.4-6-0.5-9-0.1c-3.9,0.4-7.8,1.3-11.5,2.5c-2.5,0.7-4.5,1.4-6.5,2.1c-2.8,1-5.2,1.9-6.9,2.6l22.1,60.4c3.7-1.3,6.8-2.4,9-3.2
		c6.4-2.4,9.3-3.7,11.5-4.7c2.3-1,4.5-2.3,6.6-3.7c1.7-1.1,3.2-2.5,4.7-3.9c3-3.3,5.1-7.4,6.1-11.8h0
		C782.5,1526.7,782.6,1523.1,782,1519.5z"/>
	<path class="st0" d="M906.5,63C440.7,63,63,440.7,63,906.5s377.7,843.5,843.5,843.5c465.9,0,843.5-377.7,843.5-843.5
		S1372.4,63,906.5,63z M380,1459.7c-146.1-139.1-237.2-335.5-237.2-553.2c0-421.8,341.9-763.7,763.8-763.7
		c106.8-0.1,212.4,22.2,310,65.6c-22.8,49-45.5,98-68.3,147c-67.8-55-152.5-85-239.9-84.8c-210.7,0-381.5,170.8-381.5,381.5
		c-0.1,93.7,34.4,184.2,96.9,254.1l-243.7,553.4L380,1459.7z M671.4,814.6c4.3,6.2,7.8,10.6,10.4,13.9c2.8,3.6,6.6,8.2,11.9,14.2
		c1.2,1.3,6.1,6.7,13,13.5c2.2,2.2,4.1,4,5.5,5.2L793,678.2l205.4,149.1c56.1-120.7,112.2-241.4,168.3-362.1
		c39.2,54.2,60.3,119.4,60.2,186.3c0,175.9-142.6,318.5-318.5,318.5S589.9,827.5,589.9,651.5S732.5,333,908.4,333
		c78.4-0.1,154.1,28.8,212.5,81.3c-49.1,105.7-98.3,211.4-147.4,317.1L766.9,581.2c-33.3,75.6-66.6,151.2-99.9,226.9
		C668.1,809.8,669.6,812,671.4,814.6z M805,1527.2c-1.7,14.4-9.9,27.2-22.4,34.7c-0.9,0.5-1.7,0.9-3.4,1.8
		c-5.8,2.9-11.8,5.5-17.9,7.8c-2.3,0.9-5.5,2.1-9.3,3.5l-23.2,8.3c-11.7-32-23.3-63.9-35-95.9l24.1-8.7c1-0.4,2.4-0.9,4.1-1.5
		c3.3-1.1,7.8-2.7,13-4.1c4.4-1.2,8.8-2.1,13.3-2.7c3.7-0.5,7.5-0.7,11.3-0.4c5.2,0.5,10.3,1.9,15,4c5.9,2.6,11.2,6.3,15.7,10.9
		c5,5.3,8.8,11.5,11.3,18.3c1,2.5,1.8,5.1,2.4,7.7C805.3,1516.4,805.6,1521.8,805,1527.2z M1007.4,1482l-15.5-16.8l-42.8,15.5
		l-1.4,22.9l-20.8,7.6l5.6-110.6l20.3-7.4l75.4,81.2L1007.4,1482z M1127.3,1637.9L969,1204.2c-6.1-16.6-24.4-25.1-41-19.1
		l-117.2,42.8c-16.6,6.1-25.1,24.4-19.1,41l146.2,400.8c-10.4,0.4-20.9,0.6-31.4,0.6h-0.7l-114.7-314.6c-6.1-16.6-24.4-25.1-41-19.1
		l-117.2,42.8c-16.6,6.1-25.1,24.4-19.1,41l80.2,219.9c-13.3-3.9-26.5-8.1-39.6-12.6L616,1522.3c-6.1-16.6-24.4-25.1-41-19.1
		l-97.2,35.4c-16.5-11.2-32.6-23.1-48.1-35.5l242.5-550.6l0.3-0.7c93.5,73.5,215.9,99.2,331.1,69.7l16.4,45l-23.6,8.6
		c-16.5,6.1-25.1,24.4-19.1,41l186,509.8C1151.4,1630.3,1139.4,1634.2,1127.3,1637.9z M1222.2,1391.8c-1.9,3.6-4.1,7-6.6,10.2
		c-2.5,3.3-5.5,6.4-8.7,9c-2.5,2-5.3,3.8-8.1,5.3c-4.7,2.6-9.7,4.6-14.8,6c-4.4,1.3-8.9,2-13.5,2.2c-5.3,0.2-10.6-0.4-15.8-1.7
		c-14.2-3.9-26.1-13.7-32.6-26.9c-2.3-4.5-4-9.2-5.1-14.2c-1.3-5.6-1.6-11.4-1.1-17.1c0.5-4.4,1.6-8.8,3.2-12.9
		c1.8-4.4,4.1-8.6,7-12.4c3.3-4.3,7.2-8.1,11.5-11.4c4.1-3.1,8.7-5.7,13.5-7.6c5-2,10.3-3.2,15.7-3.8c3.9-0.4,7.9-0.5,11.8-0.1
		c2.7,0.3,5.4,0.7,8.1,1.3c0.2,0,1.9,0.4,3.4,0.8c4.2,1.2,8.2,2.9,12,5l-8.6,16.9c-0.4-0.2-1-0.4-1.7-0.7c-3.2-1.4-6.5-2.5-9.8-3.4
		c-5.8-1.3-11.7-1.4-17.5-0.3c-4.6,0.9-8.9,2.6-12.9,5c-3.8,2.4-7.1,5.5-9.8,9.1c-3,4.1-5.1,8.9-6,13.9c-0.7,4.4-0.6,8.9,0.3,13.2
		c0.9,4.3,2.5,8.5,4.9,12.3c2,3.2,4.4,6,7.2,8.4c3.2,2.6,6.9,4.6,10.9,5.9c4.6,1.4,9.5,1.9,14.3,1.4c4.9-0.5,9.6-1.9,14-4.2
		c3.8-1.9,7.3-4.4,10.3-7.4c2-2.2,3.8-4.6,5.4-7.1c0.8-1.3,1.9-3.4,2.6-4.6c0.2-0.4,0.6-1.1,1.1-2.1c0.3-0.6,0.6-1.1,0.7-1.4
		l17.3,8.4C1224.2,1388.1,1223.3,1389.8,1222.2,1391.8z M1332.9,1540.2l-178.3-488.8c-6.1-16.6-24.4-25.1-41-19.1l-23.6,8.6
		l-16.5-45c128-61.6,216.3-192.4,216.3-343.9c0.1-92.1-33.2-181-93.7-250.4c25.3-54.5,50.7-109.1,76-163.6c0.3-0.6,0.6-1.1,0.9-1.7
		c236.7,129.8,397.2,381.2,397.2,670.2C1670.3,1170.4,1536.5,1403,1332.9,1540.2z"/>
</g>
</svg>
